<svg xmlns="http://www.w3.org/2000/svg" width="172" height="172" viewBox="0 0 172 172" fill="none">
  <path d="M131.019 0H40.9809C18.3478 0 0 18.3478 0 40.9809V131.019C0 153.652 18.3478 172 40.9809 172H131.019C153.652 172 172 153.652 172 131.019V40.9809C172 18.3478 153.652 0 131.019 0Z" fill="#FF8B00"/>
  <path d="M85.2401 85.0494V85.097C85.2401 87.2419 84.5251 89.2173 83.3176 90.8009L82.2637 91.966L65.3057 110.746H71.6028C76.8141 110.746 81.035 114.967 81.035 120.178C81.035 122.784 79.9811 125.14 78.2758 126.846C76.5705 128.551 74.2084 129.61 71.6081 129.61H44.3228C42.8981 129.61 41.5476 129.293 40.3401 128.731C39.4451 128.334 38.603 127.794 37.8351 127.105C35.7749 125.241 34.7263 122.678 34.7263 120.104C34.7263 117.848 35.5313 115.592 37.1572 113.786L54.56 94.5134H46.0281C40.8327 94.5134 36.6223 90.303 36.6223 85.1076V85.0599C36.6223 82.9203 37.3373 80.9449 38.5448 79.3667L39.5987 78.2016L56.562 59.4164H50.3709C45.1648 59.4164 40.9386 55.1955 40.9386 49.9842C40.9386 47.3785 41.9925 45.0218 43.7031 43.3164C45.4138 41.6111 47.7652 40.5572 50.3709 40.5572H77.6561C79.9546 40.5254 82.2637 41.3251 84.1067 42.9881C86.1669 44.8523 87.2155 47.4156 87.2155 49.9895C87.2155 52.2456 86.4105 54.5017 84.7846 56.3077L67.3077 75.6594H75.8449C81.0403 75.6594 85.2507 79.8698 85.2507 85.0652L85.2401 85.0494Z" fill="white"/>
  <path d="M120.083 41.7117C118.457 41.0603 116.72 40.6101 114.919 40.4036H110.084C105.672 40.9226 101.684 42.845 98.5915 45.7155L83.2488 62.7053L83.2382 62.7158C81.9036 64.4265 81.2416 66.476 81.2416 68.515C81.2416 71.0889 82.2902 73.6522 84.3557 75.5164C88.0682 78.8688 93.7138 78.7205 97.2463 75.2834C97.2463 75.2834 97.2463 75.2834 97.2516 75.2728L110.963 60.089C111.037 59.9831 111.122 59.8878 111.223 59.803L111.71 59.2628H111.736L111.318 59.7289C111.35 59.7077 111.381 59.6812 111.413 59.66C111.662 59.5011 111.959 59.4058 112.276 59.4058C113.156 59.4058 113.876 60.1208 113.876 61.0052C113.876 61.3865 113.744 61.7361 113.521 62.0115C113.484 62.0538 113.447 62.0962 113.41 62.1333L100.021 76.9569L88.7991 89.3815C88.8309 89.3603 88.8626 89.3391 88.8944 89.3126L88.476 89.7787H88.4813L81.1516 97.9187L75.2041 104.523C76.6923 105.672 78.35 106.625 80.1241 107.33C81.75 107.981 83.4871 108.431 85.2878 108.638H90.1231C94.5347 108.119 98.5226 106.196 101.616 103.326L116.958 86.3363C116.958 86.3363 116.964 86.3257 116.969 86.3257L127.328 74.8544C127.328 74.8544 127.349 74.8332 127.354 74.8226L127.985 74.1236C127.985 74.1236 128 74.1077 128.006 74.1024C131.104 70.5169 132.979 65.8405 132.979 60.7298C132.979 52.0973 127.64 44.7198 120.083 41.7064V41.7117ZM111.037 59.9195L110.629 60.375L97.3946 75.0292C97.2569 75.1828 97.1192 75.3258 96.9762 75.4635L110.688 60.2797C110.762 60.1737 110.847 60.0784 110.947 59.9937L111.434 59.4535H111.461L111.043 59.9195H111.037Z" fill="white"/>
  <path d="M126.419 80.6611L97.4958 112.693C94.0262 116.536 94.3286 122.463 98.1711 125.933L98.2379 125.993C102.08 129.463 108.008 129.16 111.478 125.318L140.4 93.2857C143.87 89.4432 143.568 83.5156 139.725 80.0461L139.658 79.9857C135.816 76.5162 129.888 76.8185 126.419 80.6611Z" fill="white"/>
</svg>
